<?xml version="1.0" encoding="UTF-8"?>
<svg id="Camada_1" data-name="Camada 1" xmlns="http://www.w3.org/2000/svg" xmlns:xlink="http://www.w3.org/1999/xlink" viewBox="0 0 1500 500">
  <defs>
    <style>
      .cls-1 {
        fill: #fff;
      }

      .cls-2 {
        fill: url(#Gradiente_sem_nome_15-2);
      }

      .cls-3 {
        fill: url(#Gradiente_sem_nome_17-8);
      }

      .cls-4 {
        fill: url(#Gradiente_sem_nome_15-6);
      }

      .cls-5 {
        fill: url(#Gradiente_sem_nome_17-3);
      }

      .cls-6 {
        fill: none;
        stroke: url(#Gradiente_sem_nome_42);
        stroke-miterlimit: 10;
        stroke-width: 5px;
      }

      .cls-7 {
        fill: #00323d;
      }

      .cls-8 {
        fill: url(#Gradiente_sem_nome_17-7);
      }

      .cls-9 {
        fill: url(#Gradiente_sem_nome_17-2);
      }

      .cls-10 {
        fill: url(#Gradiente_sem_nome_17-6);
      }

      .cls-11 {
        fill: url(#Gradiente_sem_nome_17-5);
      }

      .cls-12 {
        fill: url(#Gradiente_sem_nome_15);
      }

      .cls-13 {
        fill: url(#Gradiente_sem_nome_7);
      }

      .cls-14 {
        fill: url(#Gradiente_sem_nome_15-5);
      }

      .cls-15 {
        fill: url(#Gradiente_sem_nome_17);
      }

      .cls-16 {
        fill: url(#Gradiente_sem_nome_15-8);
      }

      .cls-17 {
        fill: url(#Gradiente_sem_nome_15-7);
      }

      .cls-18 {
        fill: url(#Gradiente_sem_nome_34);
      }

      .cls-19 {
        fill: url(#Gradiente_sem_nome_15-4);
      }

      .cls-20 {
        fill: url(#Gradiente_sem_nome_17-4);
      }

      .cls-21 {
        fill: url(#Gradiente_sem_nome_15-3);
      }

      .cls-22 {
        fill: #063;
      }
    </style>
    <linearGradient id="Gradiente_sem_nome_34" data-name="Gradiente sem nome 34" x1="0" y1="250" x2="1500" y2="250" gradientUnits="userSpaceOnUse">
      <stop offset="0" stop-color="#ededed"/>
      <stop offset="1" stop-color="#fff"/>
    </linearGradient>
    <linearGradient id="Gradiente_sem_nome_42" data-name="Gradiente sem nome 42" x1="723.44" y1="250" x2="1336.61" y2="250" gradientUnits="userSpaceOnUse">
      <stop offset="0" stop-color="#606060" stop-opacity="0"/>
      <stop offset=".29" stop-color="#606060"/>
    </linearGradient>
    <linearGradient id="Gradiente_sem_nome_15" data-name="Gradiente sem nome 15" x1="1198.11" y1="133.11" x2="1303.89" y2="133.11" gradientUnits="userSpaceOnUse">
      <stop offset="0" stop-color="#ededed"/>
      <stop offset="1" stop-color="#dadada"/>
    </linearGradient>
    <linearGradient id="Gradiente_sem_nome_17" data-name="Gradiente sem nome 17" x1="1198.11" y1="133.11" x2="1303.89" y2="133.11" gradientUnits="userSpaceOnUse">
      <stop offset="0" stop-color="#dadada"/>
      <stop offset="1" stop-color="#ededed"/>
    </linearGradient>
    <linearGradient id="Gradiente_sem_nome_15-2" data-name="Gradiente sem nome 15" x1="1145.22" y1="250" x2="1251" y2="250" xlink:href="#Gradiente_sem_nome_15"/>
    <linearGradient id="Gradiente_sem_nome_17-2" data-name="Gradiente sem nome 17" x1="1145.22" y1="250" x2="1251" y2="250" xlink:href="#Gradiente_sem_nome_17"/>
    <linearGradient id="Gradiente_sem_nome_15-3" data-name="Gradiente sem nome 15" x1="953.22" y1="250" x2="1059" y2="250" xlink:href="#Gradiente_sem_nome_15"/>
    <linearGradient id="Gradiente_sem_nome_17-3" data-name="Gradiente sem nome 17" x1="953.22" y1="250" x2="1059" y2="250" xlink:href="#Gradiente_sem_nome_17"/>
    <linearGradient id="Gradiente_sem_nome_15-4" data-name="Gradiente sem nome 15" x1="1023.89" x2="1129.67" xlink:href="#Gradiente_sem_nome_15"/>
    <linearGradient id="Gradiente_sem_nome_17-4" data-name="Gradiente sem nome 17" x1="1023.89" x2="1129.67" xlink:href="#Gradiente_sem_nome_17"/>
    <linearGradient id="Gradiente_sem_nome_15-5" data-name="Gradiente sem nome 15" x1="856.78" x2="962.56" xlink:href="#Gradiente_sem_nome_15"/>
    <linearGradient id="Gradiente_sem_nome_17-5" data-name="Gradiente sem nome 17" x1="856.78" x2="962.56" xlink:href="#Gradiente_sem_nome_17"/>
    <linearGradient id="Gradiente_sem_nome_15-6" data-name="Gradiente sem nome 15" x1="856.78" y1="366.89" x2="962.56" y2="366.89" xlink:href="#Gradiente_sem_nome_15"/>
    <linearGradient id="Gradiente_sem_nome_17-6" data-name="Gradiente sem nome 17" x1="856.78" y1="366.89" x2="962.56" y2="366.89" xlink:href="#Gradiente_sem_nome_17"/>
    <linearGradient id="Gradiente_sem_nome_15-7" data-name="Gradiente sem nome 15" y1="366.89" y2="366.89" xlink:href="#Gradiente_sem_nome_15"/>
    <linearGradient id="Gradiente_sem_nome_17-7" data-name="Gradiente sem nome 17" y1="366.89" y2="366.89" xlink:href="#Gradiente_sem_nome_17"/>
    <linearGradient id="Gradiente_sem_nome_15-8" data-name="Gradiente sem nome 15" x1="1023.89" y1="366.89" x2="1129.67" y2="366.89" xlink:href="#Gradiente_sem_nome_15"/>
    <linearGradient id="Gradiente_sem_nome_17-8" data-name="Gradiente sem nome 17" x1="1023.89" y1="366.89" x2="1129.67" y2="366.89" xlink:href="#Gradiente_sem_nome_17"/>
    <linearGradient id="Gradiente_sem_nome_7" data-name="Gradiente sem nome 7" x1="1193.11" y1="133.11" x2="1308.89" y2="133.11" gradientTransform="translate(1117.89 1384.11) rotate(-90)" gradientUnits="userSpaceOnUse">
      <stop offset="0" stop-color="#00323d"/>
      <stop offset="1" stop-color="#063"/>
    </linearGradient>
  </defs>
  <rect class="cls-18" x="0" width="1500" height="500"/>
  <path class="cls-6" d="m723.44,133.11h552.22c32.28,0,58.44,26.17,58.44,58.44h0c0,32.28-26.17,58.44-58.44,58.44h-388c-32.28,0-58.44,26.17-58.44,58.44h0c0,32.28,26.17,58.44,58.44,58.44h416.22"/>
  <g>
    <rect class="cls-12" x="1198.11" y="87.78" width="105.78" height="90.67" rx="25.06" ry="25.06"/>
    <path class="cls-15" d="m1278.83,90.78c12.16,0,22.06,9.89,22.06,22.06v40.56c0,12.16-9.89,22.06-22.06,22.06h-55.67c-12.16,0-22.06-9.89-22.06-22.06v-40.56c0-12.16,9.89-22.06,22.06-22.06h55.67m0-3h-55.67c-13.78,0-25.06,11.28-25.06,25.06v40.56c0,13.78,11.28,25.06,25.06,25.06h55.67c13.78,0,25.06-11.27,25.06-25.06v-40.56c0-13.78-11.28-25.06-25.06-25.06h0Z"/>
  </g>
  <g>
    <rect class="cls-2" x="1145.22" y="204.67" width="105.78" height="90.67" rx="25.06" ry="25.06"/>
    <path class="cls-9" d="m1225.94,207.67c12.16,0,22.06,9.89,22.06,22.06v40.56c0,12.16-9.89,22.06-22.06,22.06h-55.67c-12.16,0-22.06-9.89-22.06-22.06v-40.56c0-12.16,9.89-22.06,22.06-22.06h55.67m0-3h-55.67c-13.78,0-25.06,11.27-25.06,25.06v40.56c0,13.78,11.28,25.06,25.06,25.06h55.67c13.78,0,25.06-11.28,25.06-25.06v-40.56c0-13.78-11.28-25.06-25.06-25.06h0Z"/>
  </g>
  <g>
    <rect class="cls-21" x="953.22" y="204.67" width="105.78" height="90.67" rx="25.06" ry="25.06"/>
    <path class="cls-5" d="m1033.94,207.67c12.16,0,22.06,9.89,22.06,22.06v40.56c0,12.16-9.89,22.06-22.06,22.06h-55.67c-12.16,0-22.06-9.89-22.06-22.06v-40.56c0-12.16,9.89-22.06,22.06-22.06h55.67m0-3h-55.67c-13.78,0-25.06,11.27-25.06,25.06v40.56c0,13.78,11.28,25.06,25.06,25.06h55.67c13.78,0,25.06-11.28,25.06-25.06v-40.56c0-13.78-11.28-25.06-25.06-25.06h0Z"/>
  </g>
  <g>
    <rect class="cls-19" x="1023.89" y="87.78" width="105.78" height="90.67" rx="25.06" ry="25.06"/>
    <path class="cls-20" d="m1104.61,90.78c12.16,0,22.06,9.89,22.06,22.06v40.56c0,12.16-9.89,22.06-22.06,22.06h-55.67c-12.16,0-22.06-9.89-22.06-22.06v-40.56c0-12.16,9.89-22.06,22.06-22.06h55.67m0-3h-55.67c-13.78,0-25.06,11.28-25.06,25.06v40.56c0,13.78,11.28,25.06,25.06,25.06h55.67c13.78,0,25.06-11.27,25.06-25.06v-40.56c0-13.78-11.27-25.06-25.06-25.06h0Z"/>
  </g>
  <g>
    <rect class="cls-14" x="856.78" y="87.78" width="105.78" height="90.67" rx="25.06" ry="25.06"/>
    <path class="cls-11" d="m937.5,90.78c12.16,0,22.06,9.89,22.06,22.06v40.56c0,12.16-9.89,22.06-22.06,22.06h-55.67c-12.16,0-22.06-9.89-22.06-22.06v-40.56c0-12.16,9.89-22.06,22.06-22.06h55.67m0-3h-55.67c-13.78,0-25.06,11.28-25.06,25.06v40.56c0,13.78,11.27,25.06,25.06,25.06h55.67c13.78,0,25.06-11.27,25.06-25.06v-40.56c0-13.78-11.28-25.06-25.06-25.06h0Z"/>
  </g>
  <g>
    <rect class="cls-4" x="856.78" y="321.56" width="105.78" height="90.67" rx="25.06" ry="25.06"/>
    <path class="cls-10" d="m937.5,324.56c12.16,0,22.06,9.89,22.06,22.06v40.56c0,12.16-9.89,22.06-22.06,22.06h-55.67c-12.16,0-22.06-9.89-22.06-22.06v-40.56c0-12.16,9.89-22.06,22.06-22.06h55.67m0-3h-55.67c-13.78,0-25.06,11.28-25.06,25.06v40.56c0,13.78,11.27,25.06,25.06,25.06h55.67c13.78,0,25.06-11.27,25.06-25.06v-40.56c0-13.78-11.28-25.06-25.06-25.06h0Z"/>
  </g>
  <g>
    <rect class="cls-17" x="1198.11" y="321.56" width="105.78" height="90.67" rx="25.06" ry="25.06"/>
    <path class="cls-8" d="m1278.83,324.56c12.16,0,22.06,9.89,22.06,22.06v40.56c0,12.16-9.89,22.06-22.06,22.06h-55.67c-12.16,0-22.06-9.89-22.06-22.06v-40.56c0-12.16,9.89-22.06,22.06-22.06h55.67m0-3h-55.67c-13.78,0-25.06,11.28-25.06,25.06v40.56c0,13.78,11.28,25.06,25.06,25.06h55.67c13.78,0,25.06-11.27,25.06-25.06v-40.56c0-13.78-11.28-25.06-25.06-25.06h0Z"/>
  </g>
  <g>
    <rect class="cls-16" x="1023.89" y="321.56" width="105.78" height="90.67" rx="25.06" ry="25.06"/>
    <path class="cls-3" d="m1104.61,324.56c12.16,0,22.06,9.89,22.06,22.06v40.56c0,12.16-9.89,22.06-22.06,22.06h-55.67c-12.16,0-22.06-9.89-22.06-22.06v-40.56c0-12.16,9.89-22.06,22.06-22.06h55.67m0-3h-55.67c-13.78,0-25.06,11.28-25.06,25.06v40.56c0,13.78,11.28,25.06,25.06,25.06h55.67c13.78,0,25.06-11.27,25.06-25.06v-40.56c0-13.78-11.27-25.06-25.06-25.06h0Z"/>
  </g>
  <rect class="cls-13" x="1200.67" y="75.22" width="100.67" height="115.78" rx="30.06" ry="30.06" transform="translate(1384.11 -1117.89) rotate(90)"/>
  <path class="cls-22" d="m1076.87,156.2c-5.65,0-11.29.01-16.94,0-3.79-.01-6.04-2.22-6.04-5.97-.02-11.35-.02-22.7,0-34.05,0-3.99,2.34-6.25,6.36-6.25,9.77,0,19.54-.04,29.3.04,1.53.01,2.41-.44,3-1.8.36-.82.85-1.59,1.35-2.35.97-1.49,2.22-1.89,3.78-1.04,2.62,1.43,5.21,2.94,7.76,4.49,1.54.93,1.75,2.29.72,4.11-1.75,3.09-3.53,6.17-5.34,9.23-.48.81-.67,1.62-.67,2.55.03,8.19.02,16.37.01,24.56,0,4.14-2.36,6.47-6.52,6.47-5.59,0-11.18,0-16.77,0Zm7.85-34.65c-.75-.42-1.37-.25-1.97-.26-5.54-.02-11.07-.02-16.61-.02-1.02,0-2.06-.04-2.1-1.36-.05-1.45,1.05-1.5,2.13-1.5,5.25,0,10.53-.28,15.75.09,3.65.26,5.76-.95,7.09-4.24.51-1.26.63-1.58-.9-1.57-9.26.05-18.53.02-27.79.03-2.51,0-3.67,1.1-3.67,3.58-.02,11.24-.02,22.48,0,33.72,0,2.35,1.07,3.38,3.46,3.38,11.18.01,22.37,0,33.55-.02,2.53,0,3.67-1.22,3.67-3.78,0-6.33,0-12.65,0-18.98,0-.39.25-.88-.34-1.23-2.01,3.49-4.02,6.95-6.01,10.43-.43.75-.93,1.37-1.71,1.81-2.84,1.63-5.65,3.31-8.47,4.98-.84.5-1.72.82-2.72.82-4.07-.01-8.13,0-12.2,0-1.01,0-1.86-.23-1.88-1.43-.01-1.2.81-1.46,1.84-1.46,2.54.01,5.08,0,7.63,0,4.18,0,4.13,0,4.2-4.13.02-1.34-.37-1.76-1.71-1.73-3.39.08-6.78.05-10.17,0-1.49-.02-2.26-1.1-1.62-2.16.4-.67,1.09-.73,1.79-.73,3.39,0,6.78.01,10.17-.02.51,0,1.45.27,1.42-.45-.08-2.02,1.43-3.36,2-5.09-.66-.36-1.29-.2-1.89-.21-3.95-.02-7.91-.02-11.86-.03-.72,0-1.38-.14-1.68-.88-.22-.55-.18-1.11.27-1.57.5-.5,1.15-.4,1.76-.4,4.63-.02,9.26-.03,13.9-.05.66,0,1.38.15,1.81-.61.94-1.65,1.89-3.29,2.86-4.96Zm-4.39,17.53c0,1.13.02,2.26,0,3.39-.02.93.31,1.09,1.09.61,1.45-.88,2.94-1.68,4.38-2.57.89-.55,1.93-.9,2.52-1.92,3.28-5.74,6.58-11.46,9.92-17.16.45-.77.36-1.15-.43-1.57-1.79-.97-3.57-1.95-5.27-3.06-1.03-.67-1.47-.45-2.04.57-2.66,4.73-5.31,9.45-8.14,14.08-1.46,2.39-2.55,4.77-2.03,7.64Zm16.4-31.53c-.42-.01-.63.17-.78.42-.97,1.65-1.92,3.32-2.89,4.97-.4.68.11.88.55,1.14,1.9,1.1,3.81,2.19,5.7,3.32.66.4,1.06.38,1.46-.37.76-1.44,1.57-2.87,2.45-4.24.6-.93.28-1.4-.55-1.86-1.67-.93-3.32-1.92-4.98-2.87-.34-.2-.7-.36-.96-.49Z"/>
  <g>
    <path class="cls-7" d="m989.97,271.54c.73-2.28-.69-3.9-2.69-5.67-8.53-7.55-7.95-20.64,1.07-27.82.81-.65,1.44-1.38,2.04-2.22,5.2-7.37,12.31-10.86,21.27-9.6,8.91,1.25,15.81,5.67,18.48,14.73,2.07,7.02.35,13.49-4.64,18.89-1.18,1.27-1.71,2.46-1.58,4.12.09,1.28.06,2.59-.03,3.87-.13,1.86-1.34,2.81-2.65,1.73-3.06-2.54-5.35-1.28-8.14.5-3.55,2.26-7.71,2.55-11.84,2.04-1.19-.15-2.08.1-3.03.71-1.83,1.18-3.68,2.32-5.55,3.43-1.93,1.15-2.68.71-2.71-1.55-.01-.88,0-1.77,0-3.15Zm.64-25.36c.19,1.28.27,2.57.58,3.82,2.01,8.29,9.38,13.35,18.73,12.51,3.31-.3,6.13.05,8.65,2.27.46.41,1.06,1.19,1.7.78.58-.37.28-1.27.23-1.92-.17-2.32.4-4.09,2.18-5.92,5.9-6.1,6.54-14.45,1.68-20.83-4.61-6.05-11.08-8.24-18.44-7.33-8.52,1.06-15.28,8.67-15.3,16.62Zm-3.5-1.03c-.67.16-.74.62-.91.96-3.45,6.81-1.15,14.89,5.65,19.47,1.16.79,1.63,1.58,1.56,2.95-.06,1.29-.27,2.64.24,4.04,1.79-1.17,3.35-2.42,5.11-3.28,1.91-.94,3.98.37,5.99,0,.47-.08.95-.05,1.42-.12,2.67-.37,5.02-1.43,7.57-3.4-15.55,2.33-26.41-6.83-26.62-20.63Z"/>
    <path class="cls-7" d="m1019.56,248.62c-1.59-.17-2.48-1.06-2.55-2.62-.07-1.52,1.18-2.64,2.75-2.54,1.65.1,2.48,1.1,2.42,2.65-.07,1.55-1.03,2.42-2.62,2.52Z"/>
    <path class="cls-7" d="m1011.74,246.06c-.23,1.56-1.06,2.55-2.68,2.51-1.61-.03-2.53-1.02-2.49-2.61.04-1.58.94-2.52,2.6-2.48,1.65.04,2.41,1.02,2.57,2.58Z"/>
    <path class="cls-7" d="m1001.2,245.84c-.16,1.78-1.03,2.72-2.62,2.71-1.59-.02-2.52-.94-2.5-2.56.02-1.61.92-2.48,2.56-2.49,1.68,0,2.37,1.01,2.57,2.35Z"/>
  </g>
  <path class="cls-22" d="m926.82,141.44c0,2.42-1.07,4.14-3.37,4.91-1.04.35-1.25,1.53-2.14,1.78-1.78.51-2.7,1.88-3.91,3.08-1.18,1.17-2.52,2.47-4.03,3.16-2.5,1.14-5.54,1.07-7.96.57-2.09-.43-4.3-2.36-6.01-4.13-.8-.82-1.57-1.26-2.55-1.78-2.46-1.3-4.4-3.41-6.28-5.46-.84-.92-.46-2.27.06-3.38.25-.55.68-.96.05-1.62-.63-.67-.99-.29-1.57,0-1.13.59-2.29.5-3.4-.14-1.51-.87-3.05-1.71-4.54-2.63-1.64-1.01-2.19-2.83-1.21-4.55,3.53-6.23,7.11-12.44,10.73-18.61,1.06-1.81,2.8-2.2,4.68-1.19,1.54.83,3.05,1.72,4.55,2.61,1.24.73,1.94,1.88,1.64,3.26-.24,1.11.29,1.5,1,2.02,2.56,1.87,2.58,1.92,5.07.14,1.11-.79,2.23-1.22,3.6-1.15,1.24.06,2.48-.05,3.72-.02,1.54.03,2.77.13,2.96-2.13.17-2.06,6.69-5.52,8.72-4.99,1,.26,1.64.92,2.14,1.79,3.43,5.96,6.88,11.92,10.3,17.89,1.33,2.32.84,4.04-1.46,5.39-1.31.77-2.64,1.51-3.96,2.28-1.42.82-2.84.81-4.08-.26-.6-.52-.9-.48-1.27.14-.58.97-1.82,1.62-1.51,3.04Zm-18.55,4.92c1.34-1.35,2.35-.94,3.25.5.64,1.02,1.55,1.77,2.59,2.39.65.39,1.16.33,1.61-.28.56-.77-.15-.97-.58-1.26-1.32-.88-2.55-1.86-3.67-2.98-.73-.73-1.36-1.51-.45-2.46.9-.94,1.71-.43,2.45.35,1.17,1.24,2.54,2.23,3.98,3.13.56.35,1.13.67,1.86.05-1.95-1.26-3.61-2.7-4.94-4.46-.66-.88-2-1.86-.62-3.01,1.49-1.24,2.15.34,2.9,1.24,1.39,1.66,2.9,3.16,4.92,4.04,1.07.46,1.72-.08,2.18-.98.39-.76.31-1.33-.52-1.82-4.05-2.39-6.83-6-9.35-9.85-1.23-1.87-4.51-1.72-5.62.25-2.03,3.62-4.98,4.84-8.97,3.71-1.78-.5-2.13-1.12-1.49-2.84.89-2.38,1.83-4.74,2.73-7.11.23-.6.55-1.09,1.1-1.45.29-.19.96-.41.62-.79-.54-.62-1.29-1.09-2.01-1.52-.39-.23-.56.26-.71.53-2.52,4.34-5.01,8.7-7.55,13.03-.41.7.03,1.01.39,1.43.47.56.74.09,1.1-.15,2.29-1.45,5.01-.62,5.99,1.87.27.68.49,1.12,1.34,1.21,1.41.16,2.4.98,2.7,2.42.12.57.3.83.95.93,2.97.46,3.39.91,3.84,3.87Zm6.41-25.17c-1.5.09-3.31-.61-4.6.22-3.47,2.23-7.7,3.85-8.47,8.74-.12.73-1.12,1.54-.41,2.11.78.62,1.84.1,2.7-.36.72-.38,1.39-.97,1.58-1.71.67-2.55,2.5-3.19,4.81-3.23.67-.01,1.37-.09,2.01-.27,1.49-.44,2.4.09,3.2,1.4,2,3.28,4.22,6.42,7.26,8.87,1.91,1.54,1.82,1.46,3.45-.38,1.04-1.17,1.08-2.07.25-3.37-1.69-2.67-3.4-5.36-4.74-8.21-1.46-3.1-3.25-5.08-7.04-3.8Zm-15.95-3.99c.02-.57-.34-.75-.68-.95-.98-.56-2.01-1.05-2.91-1.72-1.23-.91-1.92-.75-2.69.65-2.56,4.63-5.29,9.17-7.9,13.77-.75,1.31-2.27,2.66-1.96,3.96.34,1.43,2.49,1.67,3.74,2.6.97.73,1.56.65,2.21-.52,3.18-5.64,6.45-11.23,9.69-16.84.2-.34.37-.69.51-.97Zm26.75-3.25c-1.23.7-2.51,1.53-3.87,2.2-1.08.54-1.14,1.08-.55,2.09,2.76,4.65,5.42,9.36,8.16,14.03.79,1.34,1.17,3.47,2.56,3.77,1.35.29,2.71-1.34,4.1-2.06.1-.05.19-.12.3-.16.79-.36.89-.84.44-1.61-3.38-5.79-6.72-11.61-10.07-17.41-.22-.38-.38-.84-1.07-.83Zm-25.62,27.95c-1.42.43-2.22,1.55-2.91,2.8-.37.68-.19,1.22.42,1.57.55.32,1.21.48,1.68-.11.73-.92,1.38-1.92,1.66-3.09.16-.66-.06-1.1-.85-1.17Zm-3.03-2.54c0-.42-.15-.76-.52-.99-.4-.24-.76-.15-1.06.17-.83.92-1.58,1.9-2.11,3.02-.22.46-.11.89.26,1.22.29.26.62.51,1.05.37.35-.11,2.38-3.39,2.38-3.8Zm7.63,6.01c-1.11.05-3.14,1.98-3.17,2.92-.02.62.38,1.02.87,1.34.61.41.93-.05,1.24-.44.66-.83,1.35-1.65,1.74-2.66.31-.81-.02-1.16-.67-1.16Zm2.66,3.9c-.65.65-1.44,1.3-1.64,2.3-.08.4.4.98.83.86,1.08-.3,1.44-1.32,1.73-2.28.17-.55-.35-.73-.92-.88Z"/>
  <g>
    <path class="cls-1" d="m1251,129.64c-6.27,0-12.19-1.51-16.25-4.15-3.43-2.22-5.32-5.13-5.32-8.17,0-6.91,9.48-12.32,21.57-12.32s21.58,5.41,21.58,12.32c0,3.05-1.89,5.95-5.32,8.17-4.07,2.64-10,4.15-16.26,4.15Zm0-21.91c-10.21,0-18.83,4.39-18.83,9.59,0,2.09,1.45,4.17,4.07,5.87,3.63,2.36,9.02,3.71,14.76,3.71s11.13-1.35,14.77-3.71c2.62-1.7,4.07-3.79,4.07-5.87,0-5.2-8.63-9.59-18.84-9.59Z"/>
    <path class="cls-1" d="m1251,161.23c-1.51,0-2.9-.37-3.92-1.02-1.02-.66-1.59-1.58-1.59-2.59v-16.67h11.03v16.67c0,1.01-.56,1.93-1.59,2.59-1.02.66-2.42,1.02-3.93,1.02Zm-2.77-17.55v13.93s.09.13.34.29c.57.37,1.48.59,2.43.59s1.87-.22,2.44-.59c.24-.16.33-.29.35-.32v-13.9h-5.55Z"/>
    <path class="cls-1" d="m1263.37,156.21c-1.36,0-1.39-1.39-1.39-1.98,0-.31,0-.71,0-1.14v-13.3h2.8v13.3c0,.43,0,.83,0,1.14-.01.59-.03,1.98-1.39,1.98h0Z"/>
    <path class="cls-1" d="m1251,143.68c-12.09,0-21.57-5.41-21.57-12.32v-14.04h2.74c0,2.09,1.45,4.17,4.07,5.87,3.63,2.36,9.02,3.71,14.76,3.71s11.13-1.35,14.77-3.71c2.62-1.7,4.07-3.79,4.07-5.87h2.74v14.04c0,6.91-9.48,12.32-21.58,12.32Zm-18.83-20.28v7.95c0,5.2,8.62,9.59,18.83,9.59s18.84-4.39,18.84-9.59v-7.95c-.72.74-1.59,1.44-2.58,2.09-4.07,2.64-10,4.15-16.26,4.15s-12.19-1.51-16.25-4.15c-.99-.64-1.85-1.34-2.58-2.09Z"/>
    <path class="cls-1" d="m1251,137.35c-1.25,0-2.26-1.01-2.26-2.26s1.01-2.26,2.26-2.26,2.26,1.01,2.26,2.26-1.01,2.26-2.26,2.26Zm0-2.74c-.26,0-.48.21-.48.48s.21.48.48.48.48-.21.48-.48-.21-.48-.48-.48Z"/>
    <path class="cls-1" d="m1260.37,136.01c-1.25,0-2.26-1.01-2.26-2.26s1.01-2.26,2.26-2.26,2.26,1.01,2.26,2.26-1.01,2.26-2.26,2.26Zm0-2.74c-.26,0-.48.21-.48.48s.21.48.48.48.48-.21.48-.48-.21-.48-.48-.48Z"/>
  </g>
  <g>
    <path class="cls-7" d="m1179.17,260.35c-.22,0-.44-.05-.65-.15l-15.54-7.94c-.45-.23-.74-.68-.77-1.18-.03-.5.2-.98.63-1.26l12.6-8.49c.43-.29.98-.32,1.44-.09l15.54,7.94c.45.23.74.68.77,1.18.03.5-.2.98-.63,1.26l-12.6,8.49c-.24.16-.52.24-.8.24h0Zm-12.74-9.52l12.65,6.46,9.91-6.68-12.65-6.46s-9.91,6.68-9.91,6.68Z"/>
    <path class="cls-7" d="m1201.1,272.48c-.22,0-.44-.05-.65-.15l-15.54-7.94c-.45-.23-.74-.68-.77-1.18-.03-.5.2-.98.63-1.26l12.6-8.5c.43-.29.98-.32,1.44-.09l15.54,7.94c.45.23.74.68.77,1.18.03.5-.2.98-.63,1.26l-12.6,8.49c-.24.16-.52.24-.8.24h0Zm-12.74-9.52l12.65,6.46,9.9-6.68-12.65-6.46-9.9,6.68Z"/>
    <path class="cls-7" d="m1220.01,259.28c-.22,0-.44-.05-.65-.15l-15.54-7.94c-.45-.23-.74-.68-.77-1.18-.03-.5.2-.98.63-1.26l12.6-8.5c.43-.29.98-.32,1.44-.09l15.54,7.94c.45.23.74.68.77,1.18.03.5-.2.98-.63,1.26l-12.6,8.5c-.24.16-.52.24-.8.24h0Zm-12.74-9.52l12.65,6.46,9.91-6.68-12.65-6.46-9.91,6.68Z"/>
    <path class="cls-7" d="m1197.89,246.8c-.22,0-.44-.05-.65-.15l-15.54-7.94c-.45-.23-.74-.68-.77-1.18-.03-.5.2-.98.63-1.26l12.6-8.5c.43-.29.98-.32,1.44-.09l15.54,7.94c.45.23.74.68.77,1.18.03.5-.2.98-.63,1.26l-12.6,8.49c-.24.16-.52.24-.8.24h0Zm-12.74-9.52l12.65,6.46,9.91-6.68-12.65-6.46s-9.91,6.68-9.91,6.68Z"/>
  </g>
  <g>
    <path class="cls-7" d="m932.06,389.6c-1.61,0-3.31-.45-5.32-.99-1.79-.48-3.82-1.01-6.36-1.4h0c-6.47-1-10.27-.08-13.95.8-3.68.89-7.49,1.8-13.53.63-7.56-1.47-18.64-6.44-18.42-12.44.1-2.55,2.19-3.76,4.41-5.03,2.22-1.28,5-2.86,7.38-6.28,2.25-3.23,2.61-5.86,2.96-8.41.36-2.59.73-5.26,3.18-7.87,4.62-4.9,11.85-4.62,21-4.27,5.78.22,24.72,1.49,25.83,8.6.5,3.2-2.57,5.73-5.53,8.17-2.22,1.83-4.75,3.91-4.36,5.41.24.93,1.53,1.42,3.62,2.11,2.55.84,5.72,1.89,7.34,5.07,2.34,4.61.19,11.92-4.34,14.75-1.32.83-2.59,1.14-3.92,1.14h0Zm-11.26-5.06c2.68.41,4.88,1,6.64,1.46,3.59.95,5.26,1.33,7.11.17,3.35-2.09,5.07-7.86,3.36-11.23-1.11-2.19-3.48-2.97-5.78-3.73-2.34-.77-4.77-1.58-5.4-4.01-.81-3.17,2.27-5.72,5.26-8.17,2.27-1.87,4.84-3.99,4.58-5.67-.55-3.55-12.39-5.9-23.25-6.31-8.8-.34-15.15-.58-18.93,3.43-1.86,1.97-2.13,3.91-2.46,6.38-.37,2.73-.8,5.83-3.43,9.59-2.73,3.91-5.92,5.74-8.25,7.08-2.19,1.26-3.02,1.82-3.05,2.78-.12,3.27,7.91,8.08,16.23,9.69,5.46,1.06,8.67.29,12.39-.61,3.75-.9,8-1.92,14.99-.84h-.01Z"/>
    <path class="cls-7" d="m897.88,380.83c-3.99,0-9.51-.8-9.91-3.68-.25-1.8,1.45-2.55,3.24-3.36,1.79-.8,4.23-1.89,6.22-4.21,2.45-2.85,2.76-5.79,3.04-8.63.28-2.78.57-5.66,3.23-7.48,3.02-2.08,7.33-1.65,10.36-.54,3.13,1.14,5.33,3.06,5.91,5.15.5,1.83-.29,3.4-.99,4.78-.74,1.47-1.17,2.42-.75,3.51.22.57.52.8,1.61,1.54.54.37,1.22.84,2.06,1.49,2.51,1.97,8.2,6.83,6.86,9.39-.86,1.63-2.79,1.02-5.25.25-3.24-1.02-8.15-2.56-13.69-1.25-1.54.36-2.55.81-3.62,1.28-1.52.67-3.09,1.36-5.94,1.64h0c-.67.06-1.49.11-2.39.11h.02Zm-6.94-3.9c1.17.71,4.95,1.51,9.07,1.1h0c2.43-.24,3.68-.78,5.12-1.42,1.08-.48,2.3-1.01,4.09-1.43,6.27-1.48,11.81.26,15.12,1.3.45.14.96.3,1.41.43-.96-1.31-3.07-3.45-5.51-5.36-.77-.6-1.4-1.04-1.92-1.39-1.2-.82-2.06-1.42-2.6-2.79-.88-2.27.08-4.17.85-5.71.55-1.08,1.02-2.02.79-2.85-.32-1.19-2.02-2.52-4.22-3.32-3.01-1.1-6.11-1.01-7.9.23-1.55,1.07-1.79,2.71-2.07,5.53-.3,2.95-.68,6.63-3.69,10.12-2.39,2.77-5.26,4.06-7.17,4.91-.47.21-1.02.45-1.38.65h0Z"/>
    <path class="cls-7" d="m910.81,371.48c-.3,0-.57-.08-.78-.14-.17-.05-.41-.11-.76-.18h0c-.5-.1-.82-.12-1.06-.14-.4-.03-1.08-.06-1.55-.73-.7-.98-.12-1.96.26-2.62.3-.51.64-1.09.79-1.88.13-.65.07-1.19.03-1.58-.12-1.08.23-1.74,1.02-1.96,1.17-.32,2.01.3,3.26,4.62.6,2.05.77,3.57-.29,4.3-.32.22-.64.29-.93.29h.01Zm-1.22-3.01s.04,0,.06.01c0-.03-.01-.05-.02-.09-.01.03-.03.05-.04.08Z"/>
  </g>
  <g>
    <g>
      <path class="cls-7" d="m1103.71,362.37l-7.5,24.32c-1.25,4.05-5.55,6.32-9.59,5.07l-31.69-9.77c-4.05-1.25-6.32-5.55-5.07-9.59l5.81-18.84,16.74-8.85,26.23,8.09c4.05,1.25,6.32,5.55,5.07,9.59h0Zm-51.01,10.9c-.76,2.47.63,5.1,3.1,5.87l31.69,9.77c2.47.76,5.1-.63,5.87-3.1l7.5-24.32c.76-2.47-.63-5.1-3.1-5.87l-25.05-7.72-14.57,7.7-5.45,17.67h0Z"/>
      <polygon class="cls-7" points="1073.98 346.73 1069.85 360.13 1056.46 356 1057.34 353.15 1067.88 356.4 1071.13 345.86 1073.98 346.73"/>
    </g>
    <path class="cls-7" d="m1086.53,359.74l3.75,11.28-8.71,1.78-1.35,6.51-10.68.06-4.99-13.27,21.97-6.35Zm-.16,9.02l-1.77-5.34-16.09,4.65,3.11,8.28,6.16-.03,1.25-6.07,7.33-1.5Z"/>
  </g>
  <g>
    <path class="cls-7" d="m1269.94,395.1l-7.14-5.26-7.06,5.21v-11.19h-25.63c-3.55,0-6.44-2.89-6.44-6.43v-23.11c0-3.55,2.89-6.44,6.44-6.44h41.79c3.55,0,6.43,2.89,6.43,6.44v23.11c0,3.55-2.89,6.43-6.43,6.43h-1.96s0,11.24,0,11.24Zm-7.14-9.29l3.89,2.87v-6.34c-1.21.52-2.54.81-3.94.81-1.3,0-2.58-.25-3.76-.73v6.21l3.82-2.81h0Zm6.59-5.19h2.51c1.75,0,3.18-1.43,3.18-3.18v-23.11c0-1.76-1.43-3.19-3.18-3.19h-41.79c-1.76,0-3.19,1.43-3.19,3.19v23.11c0,1.75,1.43,3.18,3.19,3.18h25.99c-2.14-1.9-3.35-4.61-3.35-7.47,0-5.51,4.48-10,10-10s10,4.48,10,10c0,2.97-1.3,5.64-3.36,7.47Zm-6.64-14.22c-3.72,0-6.75,3.03-6.75,6.75,0,2,.88,3.89,2.41,5.17,1.21,1.02,2.75,1.58,4.34,1.58,3.72,0,6.75-3.03,6.75-6.75s-3.03-6.75-6.75-6.75Z"/>
    <path class="cls-7" d="m1262.75,383.14c-2.36,0-4.64-.83-6.43-2.35-2.27-1.9-3.57-4.69-3.57-7.66,0-5.51,4.48-10,10-10s10,4.48,10,10-4.48,10-10,10Zm0-16.75c-3.72,0-6.75,3.03-6.75,6.75,0,2,.88,3.89,2.41,5.17,1.21,1.02,2.75,1.58,4.34,1.58,3.72,0,6.75-3.03,6.75-6.75s-3.03-6.75-6.75-6.75Z"/>
    <path class="cls-7" d="m1266.7,360.17h-32.16c-.9,0-1.62-.73-1.62-1.62s.73-1.62,1.62-1.62h32.16c.9,0,1.62.73,1.62,1.62s-.73,1.62-1.62,1.62Z"/>
    <path class="cls-7" d="m1250.62,367.49h-16.08c-.9,0-1.62-.73-1.62-1.62s.73-1.62,1.62-1.62h16.08c.9,0,1.62.73,1.62,1.62s-.73,1.62-1.62,1.62Z"/>
    <path class="cls-7" d="m1262.75,383.14c-2.36,0-4.64-.83-6.43-2.35-2.27-1.9-3.57-4.69-3.57-7.66,0-5.51,4.48-10,10-10s10,4.48,10,10-4.48,10-10,10Zm0-16.75c-3.72,0-6.75,3.03-6.75,6.75,0,2,.88,3.89,2.41,5.17,1.21,1.02,2.75,1.58,4.34,1.58,3.72,0,6.75-3.03,6.75-6.75s-3.03-6.75-6.75-6.75Z"/>
    <rect class="cls-7" x="1266.69" y="379.41" width="3.25" height="2.83"/>
    <polygon class="cls-7" points="1258.98 382.23 1255.73 382.23 1255.73 379.55 1258.98 379.52 1258.98 382.23"/>
  </g>
</svg>